<?xml version="1.0" standalone="no"?>
<!DOCTYPE svg PUBLIC "-//W3C//DTD SVG 20010904//EN"
 "http://www.w3.org/TR/2001/REC-SVG-20010904/DTD/svg10.dtd">
<svg version="1.0" xmlns="http://www.w3.org/2000/svg"
 width="1536.000000pt" height="1536.000000pt" viewBox="0 0 1536.000000 1536.000000"
 preserveAspectRatio="xMidYMid meet">

<g transform="translate(0.000000,1536.000000) scale(0.100000,-0.100000)"
fill="#000000" stroke="none">
<path d="M9464 13947 c-1 -327 -4 -408 -23 -564 -20 -167 -28 -213 -36 -213
-2 0 -39 21 -82 47 -463 275 -1129 422 -1743 383 -296 -18 -539 -61 -790 -139
-202 -62 -446 -169 -578 -252 -65 -42 -81 -41 -82 1 0 8 -7 74 -16 145 -10 86
-17 266 -21 530 l-5 400 -63 -66 c-60 -64 -122 -142 -193 -246 -194 -282 -355
-646 -432 -978 -72 -311 -93 -584 -80 -1040 8 -287 9 -305 38 -415 61 -236
198 -522 357 -745 57 -80 87 -127 83 -130 -2 -2 -53 -5 -113 -6 -104 -2 -113
-1 -150 24 -114 74 -273 49 -360 -57 -20 -25 -43 -46 -51 -46 -27 0 -201 -63
-274 -99 -74 -37 -97 -65 -65 -77 9 -4 42 8 78 27 34 18 105 47 157 65 l95 32
6 -78 c9 -117 62 -195 164 -241 46 -21 142 -24 192 -6 109 40 178 141 176 256
0 36 -8 82 -17 102 -8 20 -12 39 -9 43 4 3 54 6 113 6 l107 0 64 -77 c35 -43
128 -142 207 -221 79 -79 142 -145 140 -146 -2 -2 -58 -36 -126 -77 -163 -98
-182 -110 -222 -139 -29 -21 -46 -25 -110 -25 -81 -1 -126 -17 -190 -72 -46
-38 -80 -115 -80 -181 0 -50 -5 -60 -60 -136 -65 -90 -74 -116 -37 -116 16 0
32 16 61 60 21 33 42 63 47 65 4 3 15 -7 23 -22 77 -149 299 -179 421 -57 110
109 104 292 -12 394 l-44 39 103 68 c123 82 266 165 277 161 33 -13 142 -117
361 -344 151 -156 346 -326 471 -410 72 -50 98 -72 94 -84 -31 -81 -161 -267
-268 -385 -138 -150 -307 -275 -512 -376 -239 -118 -456 -165 -755 -162 -209
1 -313 18 -504 80 -478 154 -874 532 -1056 1008 -64 169 -95 316 -109 532 -11
155 -22 190 -81 251 -62 66 -165 89 -262 60 -62 -18 -133 -89 -154 -150 -33
-101 -4 -429 61 -674 142 -533 508 -1020 985 -1307 233 -140 468 -227 786
-292 30 -6 32 -10 58 -108 175 -651 635 -1200 1256 -1499 141 -68 396 -151
566 -185 131 -26 154 -27 424 -28 256 0 297 2 405 23 377 72 712 218 1005 436
204 152 458 433 592 657 110 181 206 406 255 592 23 88 32 108 48 111 94 17
348 85 425 113 281 104 608 317 805 525 397 416 617 935 627 1479 2 107 -1
130 -18 169 -41 90 -131 150 -225 150 -80 0 -126 -17 -176 -63 -73 -67 -83
-98 -93 -271 -25 -433 -187 -800 -485 -1101 -267 -271 -561 -426 -928 -492
-113 -20 -416 -22 -532 -4 -504 79 -947 379 -1203 814 -27 45 -51 89 -54 98
-5 12 18 32 88 79 127 84 284 220 478 415 88 89 197 187 241 218 44 32 95 69
113 84 32 26 33 26 68 9 41 -19 271 -162 296 -184 17 -14 15 -17 -21 -49 -89
-76 -119 -219 -66 -322 30 -59 100 -123 153 -139 49 -15 141 -15 179 -1 50 18
102 60 132 106 l30 45 47 -71 c26 -39 50 -71 54 -71 4 0 13 7 20 15 14 17 -7
58 -67 132 -31 38 -36 51 -38 106 -2 40 -12 81 -25 110 -46 98 -166 166 -271
154 -46 -6 -53 -3 -112 37 -34 24 -105 70 -157 101 -52 31 -105 64 -118 72
l-23 14 33 27 c111 90 267 234 356 326 l103 107 60 -3 c32 -1 59 -3 59 -4 0
-1 -7 -21 -15 -44 -23 -65 -19 -156 9 -215 82 -177 313 -208 444 -60 45 51 62
100 62 179 0 39 4 56 13 56 28 0 176 -54 239 -87 70 -37 100 -38 91 -5 -7 27
-179 108 -295 138 -50 12 -69 24 -112 69 -66 67 -112 88 -196 88 -71 1 -116
-13 -166 -49 -27 -20 -39 -22 -88 -17 -31 3 -56 8 -56 10 0 2 38 50 84 107
261 323 429 654 470 931 23 157 37 554 26 740 -40 641 -219 1172 -549 1625
-87 119 -206 260 -221 260 -3 0 -5 -172 -6 -383z m-159 -2288 c12 -13 -29
-146 -72 -231 -101 -204 -307 -351 -589 -423 -55 -13 -138 -27 -185 -31 -100
-8 -101 -7 -101 95 0 98 54 234 124 315 l34 39 13 -44 c7 -24 28 -66 45 -94
32 -49 98 -115 116 -115 11 0 63 66 84 109 37 71 48 120 55 230 l6 114 48 14
c26 8 73 18 105 23 63 9 307 9 317 -1z m-2760 -25 l70 -19 6 -110 c4 -60 14
-133 23 -161 19 -61 87 -168 112 -178 39 -15 174 161 174 228 0 18 4 16 34
-13 70 -67 129 -215 130 -321 1 -93 -4 -100 -63 -100 -59 0 -191 24 -285 51
-225 67 -428 215 -514 376 -36 68 -92 216 -92 243 0 26 23 29 190 25 101 -2
166 -9 215 -21z m1368 -1133 c15 -6 27 -15 27 -21 0 -6 5 -8 10 -5 20 12 9
-27 -17 -63 -15 -20 -29 -39 -31 -42 -2 -2 -7 2 -13 10 -7 12 -9 10 -7 -6 4
-30 -146 -147 -176 -138 -33 9 -140 81 -165 110 -33 38 -61 87 -61 107 0 27
82 58 175 66 90 7 216 -2 258 -18z m-172 -1588 c111 -188 320 -429 494 -570
236 -191 519 -336 815 -416 86 -24 239 -55 308 -62 34 -4 62 -9 62 -11 0 -20
-83 -219 -126 -305 -45 -89 -153 -262 -173 -279 -3 -3 -27 -30 -52 -60 -213
-253 -510 -455 -819 -557 -211 -69 -431 -99 -650 -89 -528 23 -989 253 -1335
666 -119 143 -236 352 -304 543 l-30 85 57 7 c238 28 531 117 739 224 229 117
412 257 603 457 129 135 193 219 287 376 32 54 59 98 59 98 1 0 30 -48 65
-107z"/>
<path d="M4875 9921 c-46 -11 -76 -30 -123 -74 -172 -166 -52 -458 187 -457
193 1 319 182 251 362 -47 127 -185 200 -315 169z"/>
<path d="M10320 9911 c-72 -25 -143 -100 -165 -173 -19 -65 -19 -88 1 -159 57
-203 319 -257 461 -95 48 54 68 120 61 199 -14 176 -190 288 -358 228z"/>
<path d="M7177 5658 c-23 -18 -87 -121 -80 -131 2 -4 32 12 66 36 62 45 83 81
55 98 -17 12 -21 11 -41 -3z"/>
<path d="M7435 5629 c-11 -4 -39 -8 -62 -8 -43 -1 -57 -14 -28 -25 22 -8 20
-21 -35 -203 -27 -91 -50 -171 -50 -178 0 -21 36 -45 67 -45 33 0 56 20 73 64
16 43 6 42 -21 -1 -20 -32 -24 -35 -26 -17 -3 17 98 381 112 404 8 13 -8 18
-30 9z"/>
<path d="M6667 5612 c-17 -10 -39 -41 -55 -74 -17 -37 -33 -58 -44 -58 -9 0
-20 -4 -23 -10 -3 -5 3 -10 14 -10 25 0 25 -2 7 -66 -8 -27 -29 -103 -46 -169
-17 -66 -33 -128 -36 -137 -4 -15 1 -18 28 -18 41 0 64 16 71 50 2 14 19 79
36 145 18 66 36 137 42 158 8 32 14 37 39 37 17 0 30 5 30 10 0 6 -11 10 -25
10 -14 0 -25 4 -25 8 0 23 34 109 48 120 28 22 33 13 10 -18 -17 -24 -20 -35
-12 -48 17 -27 59 -27 78 0 21 30 20 44 -4 68 -25 25 -94 26 -133 2z"/>
<path d="M7578 5623 c-27 -2 -48 -8 -48 -14 0 -5 6 -9 14 -9 26 0 23 -25 -25
-180 -49 -159 -58 -217 -37 -238 15 -15 53 -16 79 -2 22 12 52 66 46 83 -2 7
-12 -5 -22 -25 -19 -38 -35 -49 -35 -24 0 11 98 355 115 404 3 7 -4 11 -18 10
-12 -1 -43 -3 -69 -5z"/>
<path d="M8670 5623 c-56 -6 -69 -13 -42 -24 28 -11 28 -19 -3 -115 -48 -150
-76 -264 -70 -284 7 -23 44 -35 80 -26 25 6 48 34 60 74 10 35 -10 26 -29 -14
-10 -23 -21 -33 -26 -28 -6 6 14 88 50 208 33 110 60 203 60 208 0 8 -14 8
-80 1z"/>
<path d="M9325 5623 c-40 -4 -75 -23 -43 -23 23 0 27 -19 14 -73 -10 -44 -12
-47 -37 -42 -87 19 -200 -104 -203 -221 -1 -38 4 -57 18 -73 26 -29 77 -28
114 4 l29 24 11 -24 c9 -20 19 -25 46 -25 39 0 70 26 81 67 10 40 -2 39 -21
-1 -18 -37 -34 -47 -34 -22 0 8 9 42 19 77 28 93 91 323 91 332 0 7 -11 7 -85
0z m-52 -166 c7 -19 -41 -164 -69 -208 -31 -49 -41 -54 -55 -28 -23 45 24 187
77 228 31 24 40 26 47 8z"/>
<path d="M9835 5623 c-40 -4 -75 -23 -43 -23 32 0 29 -19 -48 -263 -26 -86
-30 -137 -12 -155 15 -15 53 -16 79 -2 22 12 52 66 46 83 -3 7 -9 1 -15 -13
-5 -14 -17 -32 -26 -39 -22 -18 -21 0 3 80 11 35 36 120 56 189 20 69 38 131
40 138 4 12 -1 13 -80 5z"/>
<path d="M5510 5581 c0 -6 6 -11 14 -11 29 0 27 -22 -9 -158 -53 -197 -54
-201 -83 -217 -25 -13 -16 -14 108 -14 147 -1 201 13 234 60 37 53 11 125 -52
144 -22 6 -21 8 17 27 79 39 101 94 57 145 -23 27 -26 27 -155 31 -92 3 -131
1 -131 -7z m204 -27 c25 -65 -23 -154 -82 -154 -17 0 -22 4 -18 18 3 9 10 37
16 61 20 78 28 91 54 91 13 0 27 -7 30 -16z m-39 -194 c22 -24 16 -101 -10
-130 -25 -27 -70 -41 -88 -27 -13 11 -12 22 5 95 19 78 21 82 47 82 15 0 36
-9 46 -20z"/>
<path d="M8127 5563 c-2 -5 -10 -25 -16 -45 -10 -30 -18 -38 -37 -38 -13 0
-24 -4 -24 -10 0 -5 9 -10 20 -10 25 0 25 1 -5 -101 -42 -139 -35 -189 27
-189 40 0 65 15 84 51 23 45 11 58 -14 16 -24 -41 -42 -48 -42 -16 0 16 27
124 56 222 4 12 16 17 40 17 19 0 34 5 34 10 0 6 -14 10 -31 10 -24 0 -29 4
-25 18 21 72 21 72 -22 72 -23 0 -43 -3 -45 -7z"/>
<path d="M5995 5476 c-83 -38 -142 -150 -136 -258 3 -51 81 -65 121 -23 24 25
24 25 32 5 10 -26 30 -34 72 -26 26 5 38 15 50 40 25 52 18 78 -7 29 -19 -38
-37 -56 -37 -35 0 4 16 63 35 131 40 144 42 154 18 147 -25 -8 -74 -9 -98 -2
-11 3 -33 0 -50 -8z m61 -61 c-6 -51 -52 -173 -72 -192 -23 -24 -34 -14 -34
31 0 77 60 206 97 206 13 0 15 -8 9 -45z"/>
<path d="M6279 5480 c-31 -18 -72 -100 -50 -100 5 0 12 13 16 29 5 26 31 48
42 38 2 -2 -6 -35 -17 -73 -11 -38 -27 -92 -35 -120 -21 -71 -20 -74 24 -74
l39 0 31 98 c30 94 90 212 77 150 -4 -17 0 -32 10 -42 20 -21 26 -20 58 5 33
26 34 63 1 85 -29 19 -54 13 -89 -23 -23 -23 -26 -24 -26 -6 0 38 -43 55 -81
33z"/>
<path d="M7020 5458 c-85 -66 -139 -219 -94 -269 15 -17 27 -20 59 -16 23 4
47 14 57 27 16 20 17 20 23 0 7 -23 44 -35 80 -26 25 6 48 34 60 74 10 35 -10
26 -28 -14 -10 -19 -21 -32 -27 -29 -5 3 -7 11 -5 18 21 65 64 217 67 237 2
14 -2 24 -8 23 -26 -5 -91 -3 -115 2 -19 5 -35 -1 -69 -27z m96 -11 c6 -18
-40 -163 -66 -204 -11 -18 -27 -33 -36 -33 -38 0 6 172 58 227 24 26 36 29 44
10z"/>
<path d="M7808 5482 c-33 -13 -89 -75 -115 -126 -34 -65 -38 -150 -9 -172 29
-21 71 -17 103 10 l27 24 11 -22 c8 -16 20 -21 50 -21 33 0 43 5 62 34 13 19
23 43 22 55 0 15 -6 9 -22 -21 -20 -42 -37 -56 -37 -30 0 12 26 107 56 210 10
31 15 59 13 61 -2 2 -24 0 -49 -4 -26 -5 -49 -5 -54 1 -11 10 -33 11 -58 1z
m62 -40 c0 -31 -38 -151 -61 -192 -14 -25 -29 -39 -39 -37 -35 7 6 173 57 229
21 23 43 23 43 0z"/>
<path d="M8413 5480 c-78 -18 -151 -114 -161 -209 -5 -61 17 -90 75 -98 46 -6
126 25 137 54 10 25 -1 27 -30 4 -48 -38 -94 -20 -94 38 0 15 17 28 63 50 83
40 117 74 117 118 0 27 -5 35 -26 43 -28 11 -35 11 -81 0z m37 -38 c0 -34 -42
-98 -71 -107 -11 -4 -22 -5 -24 -3 -7 7 36 93 57 116 28 29 38 28 38 -6z"/>
<path d="M8900 5475 c-42 -14 -102 -73 -125 -122 -10 -21 -20 -59 -23 -85 -4
-40 -1 -50 21 -72 41 -40 122 -33 175 16 33 32 27 43 -12 19 -46 -29 -74 -27
-87 5 -15 41 -4 57 57 83 78 34 114 70 114 115 0 29 -5 38 -24 46 -29 11 -53
10 -96 -5z m50 -31 c0 -47 -53 -114 -89 -114 -13 0 15 67 45 108 30 39 44 41
44 6z"/>
<path d="M9554 5471 c-103 -47 -176 -213 -122 -278 14 -17 71 -27 111 -19 35
7 106 60 95 71 -4 4 -19 -2 -34 -14 -32 -25 -79 -28 -88 -5 -3 9 -6 28 -6 43
0 24 7 31 48 46 63 24 108 60 121 96 13 37 5 58 -26 70 -34 13 -52 11 -99 -10z
m66 -23 c0 -44 -77 -135 -97 -114 -9 8 26 82 53 111 29 31 44 32 44 3z"/>
<path d="M5167 4219 c-213 -50 -363 -289 -326 -520 36 -229 251 -386 483 -352
295 42 464 332 362 621 -41 115 -143 210 -265 246 -59 17 -191 20 -254 5z
m196 -165 c152 -52 217 -279 124 -435 -25 -42 -44 -60 -87 -82 -50 -26 -63
-28 -133 -24 -71 3 -83 7 -134 43 -82 57 -108 112 -108 229 1 74 5 99 24 138
60 122 186 175 314 131z"/>
<path d="M6324 4216 c-121 -39 -214 -122 -271 -242 -65 -136 -57 -318 17 -432
44 -68 100 -121 160 -150 190 -91 405 -53 541 96 64 70 97 141 111 242 29 199
-62 379 -232 463 -59 29 -75 32 -175 34 -72 2 -124 -2 -151 -11z m251 -180
c79 -47 125 -141 125 -256 0 -122 -43 -201 -135 -245 -47 -23 -64 -27 -122
-23 -117 7 -194 63 -234 167 -48 129 7 302 116 358 79 42 177 41 250 -1z"/>
<path d="M7424 4206 c-112 -52 -160 -169 -119 -287 16 -43 15 -44 -7 -59 -94
-62 -132 -126 -132 -220 0 -223 249 -359 490 -269 29 11 64 29 77 39 l25 20
60 -41 c37 -25 72 -41 92 -42 32 -2 36 2 61 53 43 89 44 100 16 100 -23 0
-117 55 -117 68 1 4 9 32 20 62 11 30 19 80 20 111 0 63 1 62 -109 100 -70 25
-75 24 -55 -6 13 -20 15 -39 11 -82 -3 -31 -10 -60 -15 -65 -12 -12 -224 192
-256 246 -32 56 -33 96 -3 124 32 30 94 29 157 -3 27 -14 52 -25 55 -25 3 0 5
38 5 84 l0 84 -47 16 c-70 24 -167 21 -229 -8z m91 -551 c129 -124 128 -124
55 -145 -76 -22 -146 -3 -195 51 -39 44 -50 75 -41 122 5 25 47 87 59 87 2 0
57 -52 122 -115z"/>
<path d="M3502 4208 c13 -34 227 -796 230 -818 3 -24 5 -25 96 -28 l92 -3 0
33 c1 46 126 537 133 518 19 -54 105 -404 117 -478 l12 -73 91 3 92 3 3 30 c4
37 65 266 177 670 14 50 28 105 31 123 l7 32 -90 0 -89 0 -59 -267 c-32 -148
-61 -271 -64 -275 -4 -4 -24 61 -46 145 -21 84 -53 206 -70 272 l-32 120 -79
3 -79 3 -70 -276 c-38 -151 -72 -275 -75 -275 -3 0 -37 123 -75 273 l-71 272
-93 3 c-73 2 -92 0 -89 -10z"/>
<path d="M8300 3790 l0 -430 90 0 90 0 2 259 3 258 95 -155 c52 -85 99 -156
105 -156 5 -1 53 76 105 170 l95 172 3 -274 2 -274 90 0 90 0 -2 428 -3 427
-91 3 -90 3 -99 -176 c-54 -96 -101 -175 -104 -175 -4 0 -37 53 -75 118 -38
64 -85 143 -103 175 l-34 57 -85 0 -84 0 0 -430z"/>
<path d="M9490 3790 l0 -430 95 0 95 0 0 430 0 430 -95 0 -95 0 0 -430z"/>
<path d="M10269 4167 c-19 -59 -89 -255 -178 -498 -78 -215 -106 -298 -100
-303 2 -2 42 -6 89 -8 l85 -3 30 93 30 92 144 -3 144 -2 30 -87 29 -88 98 0
99 0 -44 123 c-24 67 -59 165 -78 217 -42 115 -176 490 -182 508 -3 8 -31 12
-92 12 l-88 0 -16 -53z m145 -319 c20 -64 36 -123 36 -132 0 -13 -14 -16 -85
-16 -47 0 -85 2 -85 4 0 2 13 43 28 92 16 49 35 110 42 136 8 26 17 44 21 40
3 -4 23 -59 43 -124z"/>
<path d="M11052 3893 c3 -327 3 -328 28 -377 33 -64 108 -130 173 -152 70 -24
196 -24 264 -1 65 23 145 96 173 159 32 73 42 184 38 448 l-3 245 -92 3 -93 3
0 -288 c0 -162 -5 -304 -10 -324 -23 -82 -105 -125 -187 -99 -45 15 -69 35
-92 75 -14 26 -16 75 -19 333 l-4 302 -89 0 -90 0 3 -327z"/>
<path d="M6925 2475 c-77 -27 -130 -116 -93 -153 15 -15 60 -15 93 0 28 12 35
35 8 23 -10 -5 -33 -10 -50 -13 -63 -8 -53 59 16 105 59 40 106 26 104 -30 -2
-67 -49 -127 -175 -226 -38 -29 -68 -56 -68 -59 0 -4 37 -7 83 -8 45 -1 107
-2 137 -3 50 -2 58 1 83 29 32 35 35 79 9 103 -25 23 -35 21 -22 -4 20 -36 6
-49 -52 -48 -29 1 -66 4 -83 8 -30 6 -29 7 47 54 128 80 173 148 134 200 -27
36 -104 46 -171 22z"/>
<path d="M7460 2481 c-165 -50 -256 -256 -156 -350 33 -31 109 -38 174 -17
170 57 240 305 102 360 -43 17 -79 19 -120 7z m64 -26 c68 -68 -15 -335 -104
-335 -91 0 -48 287 50 337 32 16 35 16 54 -2z"/>
<path d="M7935 2476 c-56 -21 -105 -77 -105 -120 0 -36 12 -46 55 -46 30 0 75
20 75 33 0 5 -8 6 -17 1 -10 -4 -34 -8 -53 -8 -48 -1 -52 30 -10 78 41 46 93
58 122 28 19 -19 20 -24 8 -66 -14 -52 -90 -136 -183 -201 -58 -41 -76 -73
-34 -59 26 8 83 7 152 -4 86 -14 138 11 151 74 4 21 0 37 -14 54 -11 14 -24
21 -28 17 -5 -4 -2 -12 5 -16 7 -5 11 -17 9 -27 -4 -23 -40 -29 -118 -19 -63
8 -66 2 48 77 85 56 124 101 120 140 -6 62 -100 94 -183 64z"/>
<path d="M8535 2474 c-20 -15 -47 -15 -121 1 l-31 7 -47 -106 c-25 -59 -46
-108 -46 -110 0 -3 24 -2 53 1 69 7 82 -7 78 -89 -2 -60 -114 -147 -188 -148
-18 0 -33 -4 -33 -10 0 -25 125 -2 211 39 116 55 162 164 91 217 -26 20 -94
27 -137 15 -22 -6 -41 -9 -43 -6 -5 5 49 125 57 125 3 0 24 -7 47 -16 38 -14
44 -14 73 1 39 20 90 96 64 95 -5 0 -17 -8 -28 -16z"/>
</g>
</svg>
